<svg width="239" height="27" viewBox="0 0 239 27" fill="none" xmlns="http://www.w3.org/2000/svg">
<g clip-path="url(#clip0_1_2)">
<path d="M9.88103 0.55307L0 12.0576L9.88103 23.5601L12.2174 19.8829L5.55897 12.0556L12.2174 4.2283L9.88103 0.55307ZM14.2051 23.2854H18.5415L25.4359 0.764989H21.0974L14.2051 23.2854ZM30.119 0.55307L27.7826 4.23027L34.441 12.0576L27.7826 19.8848L30.119 23.562L40 12.0595L30.119 0.55307Z" fill="#FF57B2"/>
<path d="M64.1222 6.90909V9.29545H56.5966V6.90909H64.1222ZM58.4545 3.77273H61.5398V16.0625C61.5398 16.4773 61.6023 16.7955 61.7273 17.017C61.858 17.233 62.0284 17.3807 62.2386 17.4602C62.4489 17.5398 62.6818 17.5795 62.9375 17.5795C63.1307 17.5795 63.3068 17.5653 63.4659 17.5369C63.6307 17.5085 63.7557 17.483 63.8409 17.4602L64.3608 19.8722C64.196 19.929 63.9602 19.9915 63.6534 20.0597C63.3523 20.1278 62.983 20.1676 62.5455 20.179C61.7727 20.2017 61.0767 20.0852 60.4574 19.8295C59.8381 19.5682 59.3466 19.1648 58.983 18.6193C58.625 18.0739 58.4489 17.392 58.4545 16.5739V3.77273ZM75.0462 14.4943V6.90909H78.1314V20H75.1399V17.6733H75.0036C74.7081 18.4062 74.2223 19.0057 73.5462 19.4716C72.8757 19.9375 72.049 20.1705 71.0661 20.1705C70.2081 20.1705 69.4496 19.9801 68.7905 19.5994C68.1371 19.2131 67.6257 18.6534 67.2564 17.9205C66.8871 17.1818 66.7024 16.2898 66.7024 15.2443V6.90909H69.7876V14.767C69.7876 15.5966 70.0149 16.2557 70.4695 16.7443C70.924 17.233 71.5206 17.4773 72.2592 17.4773C72.7138 17.4773 73.1541 17.3665 73.5803 17.1449C74.0064 16.9233 74.3558 16.5938 74.6286 16.1562C74.907 15.7131 75.0462 15.1591 75.0462 14.4943ZM84.3892 12.3295V20H81.304V6.90909H84.2528V9.13352H84.4062C84.7074 8.40057 85.1875 7.81818 85.8466 7.38636C86.5114 6.95455 87.3324 6.73864 88.3097 6.73864C89.2131 6.73864 90 6.93182 90.6705 7.31818C91.3466 7.70455 91.8693 8.2642 92.2386 8.99716C92.6136 9.73011 92.7983 10.6193 92.7926 11.6648V20H89.7074V12.142C89.7074 11.267 89.4801 10.5824 89.0256 10.0881C88.5767 9.59375 87.9545 9.34659 87.1591 9.34659C86.6193 9.34659 86.1392 9.46591 85.7188 9.70455C85.304 9.9375 84.9773 10.2756 84.7386 10.7188C84.5057 11.1619 84.3892 11.6989 84.3892 12.3295ZM100.787 20.2301C99.7585 20.2301 98.8381 19.9659 98.0256 19.4375C97.2131 18.9091 96.571 18.142 96.0994 17.1364C95.6278 16.1307 95.392 14.9091 95.392 13.4716C95.392 12.017 95.6307 10.7898 96.108 9.78977C96.5909 8.78409 97.2415 8.02557 98.0597 7.5142C98.8778 6.99716 99.7898 6.73864 100.795 6.73864C101.563 6.73864 102.193 6.86932 102.688 7.13068C103.182 7.38636 103.574 7.69602 103.864 8.05966C104.153 8.41761 104.378 8.75568 104.537 9.07386H104.665V2.54545H107.759V20H104.724V17.9375H104.537C104.378 18.2557 104.148 18.5937 103.847 18.9517C103.545 19.304 103.148 19.6051 102.653 19.8551C102.159 20.1051 101.537 20.2301 100.787 20.2301ZM101.648 17.6989C102.301 17.6989 102.858 17.5227 103.318 17.1705C103.778 16.8125 104.128 16.3153 104.366 15.679C104.605 15.0426 104.724 14.3011 104.724 13.4545C104.724 12.608 104.605 11.8722 104.366 11.2472C104.134 10.6222 103.787 10.1364 103.327 9.78977C102.872 9.44318 102.313 9.26989 101.648 9.26989C100.96 9.26989 100.386 9.44886 99.9261 9.80682C99.4659 10.1648 99.1193 10.6591 98.8864 11.2898C98.6534 11.9205 98.5369 12.642 98.5369 13.4545C98.5369 14.2727 98.6534 15.0028 98.8864 15.6449C99.125 16.2812 99.4744 16.7841 99.9347 17.1534C100.401 17.517 100.972 17.6989 101.648 17.6989ZM116.842 20.2557C115.529 20.2557 114.396 19.983 113.441 19.4375C112.492 18.8864 111.762 18.108 111.251 17.1023C110.739 16.0909 110.484 14.9006 110.484 13.5312C110.484 12.1847 110.739 11.0028 111.251 9.9858C111.768 8.96307 112.489 8.16761 113.415 7.59943C114.342 7.02557 115.43 6.73864 116.68 6.73864C117.487 6.73864 118.248 6.86932 118.964 7.13068C119.685 7.38636 120.322 7.78409 120.873 8.32386C121.43 8.86364 121.867 9.55114 122.185 10.3864C122.504 11.2159 122.663 12.2045 122.663 13.3523V14.2983H111.933V12.2188H119.705C119.7 11.6278 119.572 11.1023 119.322 10.642C119.072 10.1761 118.722 9.80966 118.273 9.54261C117.83 9.27557 117.313 9.14205 116.722 9.14205C116.092 9.14205 115.538 9.29545 115.06 9.60227C114.583 9.90341 114.211 10.3011 113.944 10.7955C113.683 11.2841 113.549 11.821 113.543 12.4062V14.2216C113.543 14.983 113.683 15.6364 113.961 16.1818C114.239 16.7216 114.629 17.1364 115.129 17.4261C115.629 17.7102 116.214 17.8523 116.884 17.8523C117.333 17.8523 117.739 17.7898 118.103 17.6648C118.467 17.5341 118.782 17.3438 119.049 17.0938C119.316 16.8438 119.518 16.5341 119.654 16.1648L122.535 16.4886C122.353 17.25 122.006 17.9148 121.495 18.483C120.989 19.0455 120.342 19.483 119.552 19.7955C118.762 20.1023 117.859 20.2557 116.842 20.2557ZM118.325 5.34091L116.594 3.15909L114.864 5.34091H112.163V5.22159L115.393 1.53977H117.805L121.026 5.22159V5.34091H118.325ZM132.37 20V2.54545H135.455V9.07386H135.583C135.742 8.75568 135.967 8.41761 136.256 8.05966C136.546 7.69602 136.938 7.38636 137.433 7.13068C137.927 6.86932 138.558 6.73864 139.325 6.73864C140.336 6.73864 141.248 6.99716 142.06 7.5142C142.879 8.02557 143.526 8.78409 144.004 9.78977C144.487 10.7898 144.728 12.017 144.728 13.4716C144.728 14.9091 144.492 16.1307 144.021 17.1364C143.549 18.142 142.907 18.9091 142.094 19.4375C141.282 19.9659 140.362 20.2301 139.333 20.2301C138.583 20.2301 137.961 20.1051 137.467 19.8551C136.972 19.6051 136.575 19.304 136.273 18.9517C135.978 18.5937 135.748 18.2557 135.583 17.9375H135.404V20H132.37ZM135.396 13.4545C135.396 14.3011 135.515 15.0426 135.754 15.679C135.998 16.3153 136.347 16.8125 136.802 17.1705C137.262 17.5227 137.819 17.6989 138.472 17.6989C139.154 17.6989 139.725 17.517 140.185 17.1534C140.646 16.7841 140.992 16.2812 141.225 15.6449C141.464 15.0028 141.583 14.2727 141.583 13.4545C141.583 12.642 141.467 11.9205 141.234 11.2898C141.001 10.6591 140.654 10.1648 140.194 9.80682C139.734 9.44886 139.16 9.26989 138.472 9.26989C137.813 9.26989 137.254 9.44318 136.793 9.78977C136.333 10.1364 135.984 10.6222 135.745 11.2472C135.512 11.8722 135.396 12.608 135.396 13.4545ZM150.436 2.54545V20H147.351V2.54545H150.436ZM159.319 20.2557C158.04 20.2557 156.933 19.9744 155.995 19.4119C155.058 18.8494 154.33 18.0625 153.813 17.0511C153.302 16.0398 153.046 14.858 153.046 13.5057C153.046 12.1534 153.302 10.9687 153.813 9.9517C154.33 8.93466 155.058 8.14489 155.995 7.58239C156.933 7.01989 158.04 6.73864 159.319 6.73864C160.597 6.73864 161.705 7.01989 162.643 7.58239C163.58 8.14489 164.305 8.93466 164.816 9.9517C165.333 10.9687 165.592 12.1534 165.592 13.5057C165.592 14.858 165.333 16.0398 164.816 17.0511C164.305 18.0625 163.58 18.8494 162.643 19.4119C161.705 19.9744 160.597 20.2557 159.319 20.2557ZM159.336 17.7841C160.029 17.7841 160.609 17.5937 161.075 17.2131C161.54 16.8267 161.887 16.3097 162.114 15.6619C162.347 15.0142 162.464 14.2926 162.464 13.4972C162.464 12.696 162.347 11.9716 162.114 11.3239C161.887 10.6705 161.54 10.1506 161.075 9.7642C160.609 9.37784 160.029 9.18466 159.336 9.18466C158.626 9.18466 158.035 9.37784 157.563 9.7642C157.097 10.1506 156.748 10.6705 156.515 11.3239C156.288 11.9716 156.174 12.696 156.174 13.4972C156.174 14.2926 156.288 15.0142 156.515 15.6619C156.748 16.3097 157.097 16.8267 157.563 17.2131C158.035 17.5937 158.626 17.7841 159.336 17.7841ZM173.903 25.1818C172.795 25.1818 171.844 25.0313 171.048 24.7301C170.253 24.4347 169.614 24.0369 169.131 23.5369C168.648 23.0369 168.312 22.483 168.125 21.875L170.903 21.2017C171.028 21.4574 171.21 21.7102 171.449 21.9602C171.688 22.2159 172.009 22.4261 172.412 22.5909C172.821 22.7614 173.335 22.8466 173.955 22.8466C174.83 22.8466 175.554 22.6335 176.128 22.2074C176.702 21.7869 176.989 21.0938 176.989 20.1278V17.6477H176.835C176.676 17.9659 176.443 18.2926 176.136 18.6278C175.835 18.9631 175.435 19.2443 174.935 19.4716C174.44 19.6989 173.818 19.8125 173.068 19.8125C172.062 19.8125 171.151 19.5767 170.332 19.1051C169.52 18.6278 168.872 17.9176 168.389 16.9744C167.912 16.0256 167.673 14.8381 167.673 13.4119C167.673 11.9744 167.912 10.7614 168.389 9.77273C168.872 8.77841 169.523 8.02557 170.341 7.5142C171.159 6.99716 172.071 6.73864 173.077 6.73864C173.844 6.73864 174.474 6.86932 174.969 7.13068C175.469 7.38636 175.866 7.69602 176.162 8.05966C176.457 8.41761 176.682 8.75568 176.835 9.07386H177.006V6.90909H180.048V20.2131C180.048 21.3324 179.781 22.2585 179.247 22.9915C178.713 23.7244 177.983 24.2727 177.057 24.6364C176.131 25 175.08 25.1818 173.903 25.1818ZM173.929 17.392C174.582 17.392 175.139 17.233 175.599 16.9148C176.06 16.5966 176.409 16.1392 176.648 15.5426C176.886 14.946 177.006 14.2301 177.006 13.3949C177.006 12.571 176.886 11.8494 176.648 11.2301C176.415 10.6108 176.068 10.1307 175.608 9.78977C175.153 9.44318 174.594 9.26989 173.929 9.26989C173.241 9.26989 172.668 9.44886 172.207 9.80682C171.747 10.1648 171.401 10.6562 171.168 11.2812C170.935 11.9006 170.818 12.6051 170.818 13.3949C170.818 14.196 170.935 14.8977 171.168 15.5C171.406 16.0966 171.756 16.5625 172.216 16.8977C172.682 17.2273 173.253 17.392 173.929 17.392Z" fill="white"/>
<path d="M127.173 20.1875C126.656 20.1875 126.213 20.0057 125.844 19.642C125.474 19.2784 125.293 18.8352 125.298 18.3125C125.293 17.8011 125.474 17.3636 125.844 17C126.213 16.6364 126.656 16.4545 127.173 16.4545C127.673 16.4545 128.108 16.6364 128.477 17C128.852 17.3636 129.043 17.8011 129.048 18.3125C129.043 18.6591 128.952 18.9744 128.776 19.2585C128.605 19.5426 128.378 19.7699 128.094 19.9403C127.815 20.1051 127.509 20.1875 127.173 20.1875Z" fill="#FF57B2"/>
</g>
<defs>
<clipPath id="clip0_1_2">
<rect width="239" height="27" fill="white"/>
</clipPath>
</defs>
</svg>
